[2020-02-17T07:44:38.132806+01:00] application.INFO: SomeLog [] []
[2020-02-17T07:44:38.159099+01:00] application.INFO: ffprobe running command "bin/ffprobe.exe" -help -loglevel quiet [] []
[2020-02-17T07:44:38.367507+01:00] application.INFO: ffprobe executed command successfully [] []
[2020-02-17T07:44:38.368158+01:00] application.INFO: ffprobe running command "bin/ffprobe.exe" "./data/video/1.mkv" -show_streams -print_format json [] []
[2020-02-17T07:44:38.581111+01:00] application.INFO: ffprobe executed command successfully [] []
[2020-02-17T07:44:38.602311+01:00] application.INFO: ffmpeg running command "bin/ffmpeg.exe" -y -ss 00:00:10.00 -i "./data/video/1.mkv" -vframes 1 -f image2 frame.jpg [] []
[2020-02-17T07:44:38.809765+01:00] application.INFO: ffmpeg executed command successfully [] []
[2020-02-17T07:44:38.819381+01:00] application.INFO: ffmpeg running command "bin/ffmpeg.exe" -y -i "./data/video/1.mkv" -async 1 -metadata:s:v:0 start_time=0 -threads 12 -vcodec libx264 -acodec libfaac -b:v 1000k -refs 6 -coder 1 -sc_threshold 40 -flags +loop -me_range 16 -subq 7 -i_qfactor 0.71 -qcomp 0.6 -qdiff 4 -trellis 1 -b:a 128k -vf "[in]scale=320:240 [out]" -pass 1 -passlogfile "C:\Users\hp\AppData\Local\Temp\ffmpeg-passes5e4a3656c7bb5xngka/pass-5e4a3656c7d29" export-x264.mp4 [] []
[2020-02-17T07:44:39.022818+01:00] application.INFO: ffprobe running command "bin/ffprobe.exe" "./data/video/1.mkv" -show_format -print_format json [] []
[2020-02-17T07:44:39.226701+01:00] application.INFO: ffprobe executed command successfully [] []
[2020-02-17T07:44:39.227683+01:00] application.ERROR: ffmpeg failed to execute command "bin/ffmpeg.exe" -y -i "./data/video/1.mkv" -async 1 -metadata:s:v:0 start_time=0 -threads 12 -vcodec libx264 -acodec libfaac -b:v 1000k -refs 6 -coder 1 -sc_threshold 40 -flags +loop -me_range 16 -subq 7 -i_qfactor 0.71 -qcomp 0.6 -qdiff 4 -trellis 1 -b:a 128k -vf "[in]scale=320:240 [out]" -pass 1 -passlogfile "C:\Users\hp\AppData\Local\Temp\ffmpeg-passes5e4a3656c7bb5xngka/pass-5e4a3656c7d29" export-x264.mp4: ffmpeg version git-2020-02-13-6d37ca8 Copyright (c) 2000-2020 the FFmpeg developers   built with gcc 9.2.1 (GCC) 20200122   configuration: --enable-gpl --enable-version3 --enable-sdl2 --enable-fontconfig --enable-gnutls --enable-iconv --enable-libass --enable-libdav1d --enable-libbluray --enable-libfreetype --enable-libmp3lame --enable-libopencore-amrnb --enable-libopencore-amrwb --enable-libopenjpeg --enable-libopus --enable-libshine --enable-libsnappy --enable-libsoxr --enable-libtheora --enable-libtwolame --enable-libvpx --enable-libwavpack --enable-libwebp --enable-libx264 --enable-libx265 --enable-libxml2 --enable-libzimg --enable-lzma --enable-zlib --enable-gmp --enable-libvidstab --enable-libvorbis --enable-libvo-amrwbenc --enable-libmysofa --enable-libspeex --enable-libxvid --enable-libaom --enable-libmfx --enable-ffnvcodec --enable-cuvid --enable-d3d11va --enable-nvenc --enable-nvdec --enable-dxva2 --enable-avisynth --enable-libopenmpt --enable-amf   libavutil      56. 41.100 / 56. 41.100   libavcodec     58. 68.102 / 58. 68.102   libavformat    58. 38.100 / 58. 38.100   libavdevice    58.  9.103 / 58.  9.103   libavfilter     7. 75.100 /  7. 75.100   libswscale      5.  6.100 /  5.  6.100   libswresample   3.  6.100 /  3.  6.100   libpostproc    55.  6.100 / 55.  6.100 Input #0, matroska,webm, from './data/video/1.mkv':   Metadata:     COMPATIBLE_BRANDS: isomiso2avc1mp41     MAJOR_BRAND     : isom     MINOR_VERSION   : 512     ENCODER         : IDMmkvlib0.1     LANGUAGE        : und     HANDLER_NAME    : AudioHandler   Duration: 00:05:42.54, start: 0.000000, bitrate: 281 kb/s     Stream #0:0: Video: vp9 (Profile 0), yuv420p(tv, bt709/unknown/unknown), 426x240, SAR 1:1 DAR 71:40, 23.98 fps, 23.98 tbr, 1k tbn, 1k tbc (default)     Stream #0:1: Audio: opus, 48000 Hz, stereo, fltp (default) Unknown encoder 'libfaac'  [] []
[2020-02-17T07:44:39.780865+01:00] application.INFO: SomeLog [] []
[2020-02-17T07:44:39.809806+01:00] application.INFO: ffprobe running command "bin/ffprobe.exe" -help -loglevel quiet [] []
[2020-02-17T07:44:40.017779+01:00] application.INFO: ffprobe executed command successfully [] []
[2020-02-17T07:44:40.018014+01:00] application.INFO: ffprobe running command "bin/ffprobe.exe" "./data/video/1.mkv" -show_streams -print_format json [] []
[2020-02-17T07:44:40.222875+01:00] application.INFO: ffprobe executed command successfully [] []
[2020-02-17T07:44:40.227844+01:00] application.INFO: ffmpeg running command "bin/ffmpeg.exe" -y -ss 00:00:10.00 -i "./data/video/1.mkv" -vframes 1 -f image2 frame.jpg [] []
[2020-02-17T07:44:40.432294+01:00] application.INFO: ffmpeg executed command successfully [] []
[2020-02-17T07:44:40.438838+01:00] application.INFO: ffmpeg running command "bin/ffmpeg.exe" -y -i "./data/video/1.mkv" -async 1 -metadata:s:v:0 start_time=0 -threads 12 -vcodec libx264 -acodec libfaac -b:v 1000k -refs 6 -coder 1 -sc_threshold 40 -flags +loop -me_range 16 -subq 7 -i_qfactor 0.71 -qcomp 0.6 -qdiff 4 -trellis 1 -b:a 128k -vf "[in]scale=320:240 [out]" -pass 1 -passlogfile "C:\Users\hp\AppData\Local\Temp\ffmpeg-passes5e4a36586ad14399cb/pass-5e4a36586ae78" export-x264.mp4 [] []
[2020-02-17T07:44:40.641486+01:00] application.INFO: ffprobe running command "bin/ffprobe.exe" "./data/video/1.mkv" -show_format -print_format json [] []
[2020-02-17T07:44:40.845207+01:00] application.INFO: ffprobe executed command successfully [] []
[2020-02-17T07:44:40.845854+01:00] application.ERROR: ffmpeg failed to execute command "bin/ffmpeg.exe" -y -i "./data/video/1.mkv" -async 1 -metadata:s:v:0 start_time=0 -threads 12 -vcodec libx264 -acodec libfaac -b:v 1000k -refs 6 -coder 1 -sc_threshold 40 -flags +loop -me_range 16 -subq 7 -i_qfactor 0.71 -qcomp 0.6 -qdiff 4 -trellis 1 -b:a 128k -vf "[in]scale=320:240 [out]" -pass 1 -passlogfile "C:\Users\hp\AppData\Local\Temp\ffmpeg-passes5e4a36586ad14399cb/pass-5e4a36586ae78" export-x264.mp4: ffmpeg version git-2020-02-13-6d37ca8 Copyright (c) 2000-2020 the FFmpeg developers   built with gcc 9.2.1 (GCC) 20200122   configuration: --enable-gpl --enable-version3 --enable-sdl2 --enable-fontconfig --enable-gnutls --enable-iconv --enable-libass --enable-libdav1d --enable-libbluray --enable-libfreetype --enable-libmp3lame --enable-libopencore-amrnb --enable-libopencore-amrwb --enable-libopenjpeg --enable-libopus --enable-libshine --enable-libsnappy --enable-libsoxr --enable-libtheora --enable-libtwolame --enable-libvpx --enable-libwavpack --enable-libwebp --enable-libx264 --enable-libx265 --enable-libxml2 --enable-libzimg --enable-lzma --enable-zlib --enable-gmp --enable-libvidstab --enable-libvorbis --enable-libvo-amrwbenc --enable-libmysofa --enable-libspeex --enable-libxvid --enable-libaom --enable-libmfx --enable-ffnvcodec --enable-cuvid --enable-d3d11va --enable-nvenc --enable-nvdec --enable-dxva2 --enable-avisynth --enable-libopenmpt --enable-amf   libavutil      56. 41.100 / 56. 41.100   libavcodec     58. 68.102 / 58. 68.102   libavformat    58. 38.100 / 58. 38.100   libavdevice    58.  9.103 / 58.  9.103   libavfilter     7. 75.100 /  7. 75.100   libswscale      5.  6.100 /  5.  6.100   libswresample   3.  6.100 /  3.  6.100   libpostproc    55.  6.100 / 55.  6.100 Input #0, matroska,webm, from './data/video/1.mkv':   Metadata:     COMPATIBLE_BRANDS: isomiso2avc1mp41     MAJOR_BRAND     : isom     MINOR_VERSION   : 512     ENCODER         : IDMmkvlib0.1     LANGUAGE        : und     HANDLER_NAME    : AudioHandler   Duration: 00:05:42.54, start: 0.000000, bitrate: 281 kb/s     Stream #0:0: Video: vp9 (Profile 0), yuv420p(tv, bt709/unknown/unknown), 426x240, SAR 1:1 DAR 71:40, 23.98 fps, 23.98 tbr, 1k tbn, 1k tbc (default)     Stream #0:1: Audio: opus, 48000 Hz, stereo, fltp (default) Unknown encoder 'libfaac'  [] []
